<?xml version="1.0" encoding="utf-8"?>
<!-- Generator: Adobe Illustrator 27.5.0, SVG Export Plug-In . SVG Version: 6.00 Build 0)  -->
<svg version="1.1" id="BACKGROUND" xmlns="http://www.w3.org/2000/svg" xmlns:xlink="http://www.w3.org/1999/xlink" x="0px" y="0px"
	 viewBox="0 0 750 500" style="enable-background:new 0 0 750 500;" xml:space="preserve">
<g>
	<linearGradient id="SVGID_1_" gradientUnits="userSpaceOnUse" x1="244.4455" y1="-42.6471" x2="422.4456" y2="356.3528">
		<stop  offset="0" style="stop-color:#FFFFFF"/>
		<stop  offset="0.3221" style="stop-color:#F8F8F8"/>
		<stop  offset="0.8013" style="stop-color:#E3E3E3"/>
		<stop  offset="1" style="stop-color:#D9D9D9"/>
	</linearGradient>
	<rect style="fill:url(#SVGID_1_);" width="750" height="500"/>
	
		<radialGradient id="SVGID_00000075869821141627136830000001144432900172851879_" cx="-98.1414" cy="-118.4146" r="655.7765" gradientTransform="matrix(0.8961 0 0 0.9431 100.6869 0.1591)" gradientUnits="userSpaceOnUse">
		<stop  offset="0" style="stop-color:#FFFFFF"/>
		<stop  offset="0.3629" style="stop-color:#FDFDFD"/>
		<stop  offset="0.5485" style="stop-color:#F5F5F5"/>
		<stop  offset="0.694" style="stop-color:#E8E8E9"/>
		<stop  offset="0.8185" style="stop-color:#D5D5D7"/>
		<stop  offset="0.9286" style="stop-color:#BCBEC0"/>
		<stop  offset="1" style="stop-color:#A8AAAC"/>
	</radialGradient>
	<path style="fill:url(#SVGID_00000075869821141627136830000001144432900172851879_);" d="M307.35,247.464
		C136.429,374.106,0,177.613,0,177.613V0h408.605C408.605,0,420.969,163.28,307.35,247.464z"/>
	<path style="fill:#FFFFFF;" d="M750,500H0V147c59.333,103,191.968,165.353,288,158.667C448,294.527,550,157.667,607.333,0H750V500z
		"/>
	
		<radialGradient id="SVGID_00000062871305633848457990000009040238519591775617_" cx="265.002" cy="-2.0025" r="551.0501" gradientTransform="matrix(1 0.0052 -0.004 0.7623 -0.0044 -1.8596)" gradientUnits="userSpaceOnUse">
		<stop  offset="0.4175" style="stop-color:#FFFFFF"/>
		<stop  offset="0.5564" style="stop-color:#FCFCFC"/>
		<stop  offset="0.6771" style="stop-color:#F1F1F2"/>
		<stop  offset="0.7912" style="stop-color:#DFE0E1"/>
		<stop  offset="0.9004" style="stop-color:#C6C7C9"/>
		<stop  offset="1" style="stop-color:#A8AAAC"/>
	</radialGradient>
	<path style="fill:url(#SVGID_00000062871305633848457990000009040238519591775617_);" d="M750,500H0V147
		c59.333,103,191.968,165.353,288,158.667C448,294.527,556.667,157.667,614,0h136V500z"/>
	<path style="fill:#FFFFFF;" d="M750,500H274.704c0,0-69.806-170.112-38.704-215C447.969,475.528,750,25.667,750,25.667V500z"/>
	
		<linearGradient id="SVGID_00000005264026455893008830000007106669691212692869_" gradientUnits="userSpaceOnUse" x1="452.2055" y1="181.4307" x2="557.2055" y2="333.4307">
		<stop  offset="0" style="stop-color:#FFFFFF"/>
		<stop  offset="0.3221" style="stop-color:#F8F8F8"/>
		<stop  offset="0.8013" style="stop-color:#E3E3E3"/>
		<stop  offset="1" style="stop-color:#D9D9D9"/>
	</linearGradient>
	<path style="fill:url(#SVGID_00000005264026455893008830000007106669691212692869_);" d="M750,500H274.704
		c0,0-69.806-170.112-38.704-215C447.969,475.528,750,37,750,37V500z"/>
	
		<radialGradient id="SVGID_00000181776086753991570460000004727725889786233778_" cx="444.6849" cy="236.6609" r="415.6483" gradientTransform="matrix(0.9781 -0.2082 0.1094 0.5137 -16.1346 207.6647)" gradientUnits="userSpaceOnUse">
		<stop  offset="0.234" style="stop-color:#FFFFFF"/>
		<stop  offset="0.4217" style="stop-color:#FCFCFC"/>
		<stop  offset="0.5793" style="stop-color:#F1F2F2"/>
		<stop  offset="0.7261" style="stop-color:#E0E0E1"/>
		<stop  offset="0.8654" style="stop-color:#C8C9CA"/>
		<stop  offset="1" style="stop-color:#A8AAAC"/>
	</radialGradient>
	<path style="fill:url(#SVGID_00000181776086753991570460000004727725889786233778_);" d="M750,500H274.704
		c0,0-51.059-164.167-19.957-205.299C403.333,419.289,750,180.655,750,180.655V500z"/>
	<path style="fill:#FFFFFF;" d="M195.741,275.375c32.449-22.98,38.374-15.229,43.814,4.89c4.626,17.108,5.005,35.629,0.389,55.148
		C216.945,364.587,186.455,281.951,195.741,275.375z"/>
	
		<radialGradient id="SVGID_00000016046129227545025850000014203377749247141799_" cx="244.2208" cy="352.709" r="102.3532" gradientUnits="userSpaceOnUse">
		<stop  offset="0" style="stop-color:#A8AAAC"/>
		<stop  offset="0.5591" style="stop-color:#DBDCDD"/>
		<stop  offset="1" style="stop-color:#FFFFFF"/>
	</radialGradient>
	<path style="fill:url(#SVGID_00000016046129227545025850000014203377749247141799_);" d="M197.525,275.933
		c33.475-23.767,37.401-12.787,42.623,6.527c4.441,16.424,4.632,34.251-0.167,53.088
		C216.75,363.867,188.294,282.487,197.525,275.933z"/>
	<path style="fill:#FFFFFF;" d="M483.996,423.546c-5.013-45.262,15.192-84.608,31.473-76.956
		c15.834,7.442,38.295,48.439,47.646,83.121C569.838,466.075,485.251,434.885,483.996,423.546z"/>
	
		<radialGradient id="SVGID_00000055680807608516203350000009214424311055866784_" cx="571.6671" cy="428.7092" r="126.4191" gradientTransform="matrix(0.9991 0.0022 0.0022 0.9956 -0.1888 -1.5424)" gradientUnits="userSpaceOnUse">
		<stop  offset="0" style="stop-color:#A8AAAC"/>
		<stop  offset="0.3834" style="stop-color:#CFD0D1"/>
		<stop  offset="0.7838" style="stop-color:#F2F2F2"/>
		<stop  offset="1" style="stop-color:#FFFFFF"/>
	</radialGradient>
	<path style="fill:url(#SVGID_00000055680807608516203350000009214424311055866784_);" d="M485.89,424.484
		c-4.509-44.784,12.358-85.482,30.484-77.001c19.626,9.183,37.909,48.161,46.747,82.428
		C569.377,465.869,487.02,435.704,485.89,424.484z"/>
	
		<radialGradient id="SVGID_00000100347111120061511940000009516349528970528957_" cx="205.1243" cy="451.5313" r="265.8758" gradientTransform="matrix(0.8919 0.4522 -0.8289 1.6349 396.4274 -379.447)" gradientUnits="userSpaceOnUse">
		<stop  offset="0" style="stop-color:#A8AAAC"/>
		<stop  offset="0.0737" style="stop-color:#BEBFC1"/>
		<stop  offset="0.1775" style="stop-color:#D6D7D8"/>
		<stop  offset="0.2959" style="stop-color:#E8E9E9"/>
		<stop  offset="0.4359" style="stop-color:#F5F5F6"/>
		<stop  offset="0.6183" style="stop-color:#FDFDFD"/>
		<stop  offset="1" style="stop-color:#FFFFFF"/>
	</radialGradient>
	<path style="fill:url(#SVGID_00000100347111120061511940000009516349528970528957_);" d="M160,500H0V330.333
		C78.5,332,171.011,222.294,181.58,225.116C199,294,215.645,308.873,239.249,335.363C234.5,395,160,500,160,500z"/>
	<path style="fill:#FFFFFF;" d="M152.253,500c0,0,125.605-158.445,80.778-234.528C329.859,404,428.221,429.883,562.192,419.289
		c6.529,5.343,16.726,53.711,16.726,80.711H152.253z"/>
	
		<radialGradient id="SVGID_00000183961493028713819570000003533716012622335118_" cx="549.0874" cy="515.6774" r="428.9942" gradientTransform="matrix(0.9928 0 0 0.7972 11.302 104.5634)" gradientUnits="userSpaceOnUse">
		<stop  offset="0" style="stop-color:#A8AAAC"/>
		<stop  offset="0.1711" style="stop-color:#C6C7C9"/>
		<stop  offset="0.3586" style="stop-color:#DFE0E1"/>
		<stop  offset="0.5543" style="stop-color:#F1F1F2"/>
		<stop  offset="0.7616" style="stop-color:#FCFCFC"/>
		<stop  offset="1" style="stop-color:#FFFFFF"/>
	</radialGradient>
	<path style="fill:url(#SVGID_00000183961493028713819570000003533716012622335118_);" d="M155.333,500
		c0,0,120.667-156.333,81.175-229.602C335.667,404,429.309,429.883,562.313,419.289c6.482,5.343,16.606,53.711,16.606,80.711
		H155.333z"/>
	
		<linearGradient id="SVGID_00000121246531359914258140000006079128738509057665_" gradientUnits="userSpaceOnUse" x1="632.9949" y1="349.2031" x2="688.0293" y2="472.5666">
		<stop  offset="0" style="stop-color:#FFFFFF"/>
		<stop  offset="0.3221" style="stop-color:#F8F8F8"/>
		<stop  offset="0.8013" style="stop-color:#E3E3E3"/>
		<stop  offset="1" style="stop-color:#D9D9D9"/>
	</linearGradient>
	<path style="fill:url(#SVGID_00000121246531359914258140000006079128738509057665_);" d="M578.919,500
		c0,0-19.419-129-63.45-153.411c94.794,45.32,204.557,28.452,234.136-8.012L750,500H578.919z"/>
	
		<linearGradient id="SVGID_00000158723745899504457060000006643042743627152769_" gradientUnits="userSpaceOnUse" x1="546.7883" y1="438.517" x2="753.5839" y2="405.3089">
		<stop  offset="0" style="stop-color:#EFEFF0"/>
		<stop  offset="0.4606" style="stop-color:#E8E8E8"/>
		<stop  offset="1" style="stop-color:#D9D9D9"/>
	</linearGradient>
	<path style="fill:url(#SVGID_00000158723745899504457060000006643042743627152769_);" d="M580.5,500
		c0,0-17.319-126.886-60.5-151.297c92.962,45.32,200.604,17.261,229.611-19.203L750,500H580.5z"/>
	<path style="fill:#FFFFFF;" d="M0,429.751V277.75c29.292,5.9,87.708-13.5,126.375-49.5c27.58-25.678,55.686-19.25,55.686,2.287
		C182.061,325.744,0,429.751,0,429.751z"/>
	
		<radialGradient id="SVGID_00000183236267773130570320000011871548991266172049_" cx="119.2109" cy="416.0276" r="302.4999" gradientTransform="matrix(0.6755 -0.7211 0.4187 0.3752 -135.523 341.7155)" gradientUnits="userSpaceOnUse">
		<stop  offset="0" style="stop-color:#A8AAAC"/>
		<stop  offset="0.5602" style="stop-color:#D7D8D9"/>
		<stop  offset="1" style="stop-color:#FFFFFF"/>
	</radialGradient>
	<path style="fill:url(#SVGID_00000183236267773130570320000011871548991266172049_);" d="M0,425V285.096
		c36.187,0,87.08-19.351,125.416-54.256c27.344-24.897,55.084-19.877,55.084,1.005C180.5,324.156,0,425,0,425z"/>
</g>
</svg>
